<?xml version="1.0" encoding="utf-8"?><svg version="1.1" id="Layer_1" xmlns="http://www.w3.org/2000/svg" xmlns:xlink="http://www.w3.org/1999/xlink" x="0px" y="0px" viewBox="0 0 122.88 62.94" style="enable-background:new 0 0 122.88 62.94" xml:space="preserve"><style type="text/css"><![CDATA[
	.st0{fill:#002E6B;}
]]></style><g><path class="st0" d="M61.44,62.94c33.94,0,61.44-14.1,61.44-31.46C122.88,14.1,95.36,0,61.44,0C27.52,0,0,14.1,0,31.48 C0,48.84,27.52,62.94,61.44,62.94L61.44,62.94L61.44,62.94z M73.02,47.5c-1.02,2.37-2.79,7.45-6.82,9.46 c-1.25,0.62-2.74,0.9-4.11,0.95c-0.32,0-0.52,0-0.62,0c-11.33,0-21.89-1.57-30.73-4.26c-0.07-0.02-0.27-0.1-0.35-0.12 c-0.82-0.27-1.22-0.65-1.22-1.12c0-0.4,0.22-0.72,0.5-1c0.12-0.13,0.32-0.27,0.55-0.5c2.04-1.69,8.19-6.15,19.75-10.59 c4.06-1.54,9.14-3.49,14.47-4.61C67.54,35.07,79.12,33.3,73.02,47.5L73.02,47.5L73.02,47.5z M104.05,15.79 c0.22-0.37,0.5-0.7,1.04-0.72c0.27-0.02,0.67,0.05,1.27,0.42c7.22,4.43,11.48,9.99,11.48,15.99c0,10.83-13.95,20.17-33.9,24.23 c-1.27,0.25-2.12,0.25-2.42-0.07c-0.2-0.2-0.25-0.55,0-0.97c0.12-0.22,0.25-0.42,0.52-0.75c10.86-12.8,19.13-31.68,21.49-37.14 C103.73,16.41,103.9,16.04,104.05,15.79L104.05,15.79L104.05,15.79z M50.06,15.39c1.02-2.37,2.79-7.45,6.82-9.46 c1.25-0.62,2.74-0.92,4.11-0.95c0.32,0,0.52,0,0.62,0c11.36,0,21.89,1.57,30.73,4.26c0.07,0.02,0.27,0.1,0.35,0.12 c0.82,0.27,1.22,0.65,1.22,1.12c0,0.4-0.22,0.7-0.5,1c-0.12,0.12-0.32,0.27-0.55,0.5c-2.04,1.72-8.19,6.15-19.75,10.59 c-4.08,1.57-9.14,3.49-14.44,4.61C55.51,27.82,43.96,29.59,50.06,15.39L50.06,15.39L50.06,15.39z M38.93,7.22 c1.3-0.25,2.12-0.25,2.44,0.07c0.17,0.2,0.22,0.55,0,0.97c-0.12,0.22-0.27,0.42-0.52,0.72C29.99,21.82,21.72,40.67,19.35,46.15 c-0.17,0.37-0.35,0.75-0.5,1c-0.2,0.37-0.5,0.7-1.02,0.72c-0.27,0.02-0.7-0.05-1.3-0.42C9.31,43.01,5.06,37.46,5.06,31.46 C5.03,20.62,18.98,11.31,38.93,7.22L38.93,7.22z"/></g></svg>